# xmcd CD database file
#
# Track frame offsets:
#	150
#	11256
#	20626
#	32686
#	45567
#	56258
#	68081
#	80872
#	91256
#	102387
#	116109
#	128119
#	139712
#
# Disc length: 2034 seconds
#
# Revision: 2
# Processed by: cddbd v1.5.2PL0 Copyright (c) Steve Scherf et al.
# Submitted via: CDex 1.70beta2
#
DISCID=a707f00d
DTITLE=Brown , Maxine - Out Of Sight - Out of Sight
DYEAR=2006
DGENRE=Blues - Soul
TTITLE0=Sugar Dumplin' (Sam Cooke)
TTITLE1=Plum Outa Sight (Bridge-Eaton-Knight)
TTITLE2=Sunny (Bobby Hebb)
TTITLE3=I Wish It Would Rain (Whitfield-Strong-Penzabene)
TTITLE4=I'm In Love (Bobby Womack)
TTITLE5=In My Entire Life (M.Farrow)
TTITLE6=Don't Leave Me Baby (Ashford-Lewis)
TTITLE7=Just Give Me One Good Reason (Lapesey-Bass-MacMurray)
TTITLE8=Stop (Ragavoy-Shuman)
TTITLE9=Seems You've Forsaken My Love (Bridge-Eaton-Knight)
TTITLE10=When A Man Loves A Woman (Lewis-Wright)
TTITLE11=(bonus track) Love In Them There Hills (Gamble-Huff-Martin-Bell-Chambers)
TTITLE12=(bonus track) From Loving You (Martin-Bell-Gordon)
EXTD=YEAR: 2006
EXTT0=
EXTT1=
EXTT2=
EXTT3=
EXTT4=
EXTT5=
EXTT6=
EXTT7=
EXTT8=
EXTT9=
EXTT10=
EXTT11=
EXTT12=
PLAYORDER=
